<svg xmlns="http://www.w3.org/2000/svg" viewBox="0 0 175.06 164.07"><g id="Ebene_2" data-name="Ebene 2"><g id="Ebene_1-2" data-name="Ebene 1"><path d="M138.62,163.79H36.44A21.41,21.41,0,0,1,15,142.38v-77A21.41,21.41,0,0,1,36.44,44H138.62A21.41,21.41,0,0,1,160,65.37v77a21.41,21.41,0,0,1-21.41,21.41" style="fill:#003057"/><rect x="15.03" y="43.95" width="145.01" height="119.84" rx="21.41" style="fill:none;stroke:#fff;stroke-miterlimit:10;stroke-width:0.5640000104904175px"/><path d="M96.85,129.68v10.65c0,6.07,2.8,8.75,7.63,8.75s7.94-2.8,7.94-8.69V129.68h-4.31v11c0,3.39-1.24,5-3.51,5s-3.46-1.67-3.46-5v-11Zm19.31,19a33.31,33.31,0,0,0,4.68.28c3.8,0,6.11-.61,7.5-1.73a5,5,0,0,0,2-4.05,4.75,4.75,0,0,0-3.8-4.7v-.06a4.32,4.32,0,0,0,3.11-4.05,4.13,4.13,0,0,0-2.27-3.76c-1.39-.81-3-1.08-5.64-1.08a34.19,34.19,0,0,0-5.58.43v18.72Zm4.27-15.86a8.78,8.78,0,0,1,1.84-.14c2,0,3.07.75,3.07,2.21s-1.19,2.35-3.48,2.35h-1.41v-4.42Zm0,7.5h1.48c2.14,0,3.88.76,3.88,2.7s-1.74,2.78-3.68,2.78a10.51,10.51,0,0,1-1.68-.08Z" style="fill:#fff"/><path d="M137.17,129.72a2.91,2.91,0,1,1-2.91,2.9,2.9,2.9,0,0,1,2.91-2.9" style="fill:#fff"/><path d="M140.07,139.81v6.62h1.28a1.33,1.33,0,0,1,1.47,1.37c0,1.17-1.32,1.28-1.32,1.28h-7.34a1.5,1.5,0,0,1-1.07-1.38,1.25,1.25,0,0,1,1.17-1.37,13.57,13.57,0,0,1,1.63,0v-5.4h-1.68a1.39,1.39,0,0,1-1.07-1.38,1.24,1.24,0,0,1,1.12-1.32h5.81Z" style="fill:#fff"/><line x1="87.53" y1="25.92" x2="87.53" y2="13.15" style="fill:none;stroke:#003057;stroke-miterlimit:10;stroke-width:2.253999948501587px"/><path d="M95,9A7.51,7.51,0,1,1,87.53,1.5,7.51,7.51,0,0,1,95,9" style="fill:#fff"/><path d="M95,9A7.51,7.51,0,1,1,87.53,1.5,7.51,7.51,0,0,1,95,9Z" style="fill:none;stroke:#003057;stroke-miterlimit:10;stroke-width:3.005000114440918px"/><path d="M165.81,89h-9.29a7.76,7.76,0,0,1-7.76-7.75V56.21a7.76,7.76,0,0,1,7.76-7.75h9.29a7.75,7.75,0,0,1,7.75,7.75V81.28A7.75,7.75,0,0,1,165.81,89" style="fill:#fff"/><rect x="148.76" y="48.46" width="24.79" height="40.57" rx="7.75" style="fill:none;stroke:#003057;stroke-miterlimit:10;stroke-width:3.005000114440918px"/><path d="M18.54,89H9.26A7.75,7.75,0,0,1,1.5,81.28V56.21a7.75,7.75,0,0,1,7.76-7.75h9.28a7.75,7.75,0,0,1,7.76,7.75V81.28A7.75,7.75,0,0,1,18.54,89" style="fill:#fff"/><rect x="1.5" y="48.46" width="24.79" height="40.57" rx="7.75" style="fill:none;stroke:#003057;stroke-miterlimit:10;stroke-width:3.005000114440918px"/><path d="M159.28,48.77V86.15c0,12.73-9.58,23-21.41,23h-24.7a6.53,6.53,0,0,0-2.39.44l-5.47,1.94L65.16,125.82a.86.86,0,0,1-1-1l3.2-13.2.4-1.65a.59.59,0,0,0-.55-.73H37c-11.73,0-21.23-10.23-21.23-22.85V48.77c0-12.62,9.5-22.85,21.23-22.85h101c11.73,0,21.23,10.23,21.23,22.85" style="fill:#fff"/><path d="M159.28,48.77V86.15c0,12.73-9.58,23-21.41,23h-24.7a6.53,6.53,0,0,0-2.39.44l-5.47,1.94L65.16,125.82a.86.86,0,0,1-1-1l3.2-13.2.4-1.65a.59.59,0,0,0-.55-.73H37c-11.73,0-21.23-10.23-21.23-22.85V48.77c0-12.62,9.5-22.85,21.23-22.85h101C149.78,25.92,159.28,36.15,159.28,48.77Z" style="fill:none;stroke:#003057;stroke-miterlimit:10;stroke-width:3.005000114440918px"/><path d="M74.59,62.48A18.51,18.51,0,1,1,56.08,44,18.51,18.51,0,0,1,74.59,62.48" style="fill:#003057"/><circle cx="56.08" cy="62.48" r="18.51" style="fill:none;stroke:#fff;stroke-miterlimit:10;stroke-width:2.253999948501587px"/><path d="M57.64,59.4A6.66,6.66,0,1,1,51,52.74a6.66,6.66,0,0,1,6.66,6.66" style="fill:#fff"/><circle cx="50.98" cy="59.4" r="6.66" style="fill:none;stroke:#003057;stroke-miterlimit:10;stroke-width:2.253999948501587px"/><path d="M65.63,66.16A4.13,4.13,0,1,1,61.5,62a4.13,4.13,0,0,1,4.13,4.13" style="fill:#fff"/><path d="M65.63,66.16A4.13,4.13,0,1,1,61.5,62,4.13,4.13,0,0,1,65.63,66.16Z" style="fill:none;stroke:#003057;stroke-miterlimit:10;stroke-width:2.253999948501587px"/><path d="M137.49,62.48A18.51,18.51,0,1,1,119,44a18.51,18.51,0,0,1,18.5,18.51" style="fill:#003057"/><circle cx="118.99" cy="62.48" r="18.51" style="fill:none;stroke:#fff;stroke-miterlimit:10;stroke-width:2.253999948501587px"/><path d="M121,59.27a6.66,6.66,0,1,1-6.66-6.66A6.66,6.66,0,0,1,121,59.27" style="fill:#fff"/><circle cx="114.29" cy="59.27" r="6.66" style="fill:none;stroke:#003057;stroke-miterlimit:10;stroke-width:2.253999948501587px"/><path d="M128.94,66a4.13,4.13,0,1,1-4.13-4.13A4.13,4.13,0,0,1,128.94,66" style="fill:#fff"/><path d="M128.94,66a4.13,4.13,0,1,1-4.13-4.13A4.13,4.13,0,0,1,128.94,66Z" style="fill:none;stroke:#003057;stroke-miterlimit:10;stroke-width:2.253999948501587px"/><path d="M106.69,88.66c0,6.48-8.58,11.74-19.16,11.74S68.37,95.14,68.37,88.66h38.32Z" style="fill:#003057"/><path d="M106.69,88.66c0,6.48-8.58,11.74-19.16,11.74S68.37,95.14,68.37,88.66h38.32Z" style="fill:none;stroke:#fff;stroke-miterlimit:10;stroke-width:0.5640000104904175px"/></g></g></svg>